<?xml version="1.0" encoding="UTF-8" standalone="no"?>
<!DOCTYPE svg PUBLIC "-//W3C//DTD SVG 1.1//EN"
 "http://www.w3.org/Graphics/SVG/1.1/DTD/svg11.dtd">
<!-- Generated by graphviz version 2.42.4 (0)
 -->
<!-- Title: G Pages: 1 -->
<svg width="426pt" height="511pt"
 viewBox="0.00 0.00 426.00 511.00" xmlns="http://www.w3.org/2000/svg" xmlns:xlink="http://www.w3.org/1999/xlink">
<g id="graph0" class="graph" transform="scale(1 1) rotate(0) translate(18 493)">
<title>G</title>
<polygon fill="#f7fafc" stroke="transparent" points="-18,18 -18,-493 408,-493 408,18 -18,18"/>
<text text-anchor="middle" x="195" y="-455" font-family="Noto Sans CJK SC" font-size="20.00">Gin：进入链与错误回卷</text>
<!-- server -->
<g id="node1" class="node">
<title>server</title>
<path fill="#e8f0ff" stroke="black" d="M290,-445C290,-445 145,-445 145,-445 139,-445 133,-439 133,-433 133,-433 133,-417 133,-417 133,-411 139,-405 145,-405 145,-405 290,-405 290,-405 296,-405 302,-411 302,-417 302,-417 302,-433 302,-433 302,-439 296,-445 290,-445"/>
<text text-anchor="middle" x="217.5" y="-428.4" font-family="Noto Sans CJK SC" font-size="12.00">http.Server → gin.Engine</text>
<text text-anchor="middle" x="217.5" y="-415.4" font-family="Noto Sans CJK SC" font-size="12.00">方法与路径匹配</text>
</g>
<!-- outer -->
<g id="node2" class="node">
<title>outer</title>
<path fill="#e8f0ff" stroke="black" d="M287.5,-382C287.5,-382 147.5,-382 147.5,-382 141.5,-382 135.5,-376 135.5,-370 135.5,-370 135.5,-358 135.5,-358 135.5,-352 141.5,-346 147.5,-346 147.5,-346 287.5,-346 287.5,-346 293.5,-346 299.5,-352 299.5,-358 299.5,-358 299.5,-370 299.5,-370 299.5,-376 293.5,-382 287.5,-382"/>
<text text-anchor="middle" x="217.5" y="-360.9" font-family="Noto Sans CJK SC" font-size="12.00">ErrorEnvelope：c.Next()</text>
</g>
<!-- server&#45;&gt;outer -->
<g id="edge1" class="edge">
<title>server&#45;&gt;outer</title>
<path fill="none" stroke="#435671" d="M217.5,-404.68C217.5,-400.71 217.5,-396.46 217.5,-392.27"/>
<polygon fill="#435671" stroke="#435671" points="221,-392.17 217.5,-382.17 214,-392.17 221,-392.17"/>
</g>
<!-- recover -->
<g id="node3" class="node">
<title>recover</title>
<path fill="#e8f0ff" stroke="black" d="M284,-323C284,-323 151,-323 151,-323 145,-323 139,-317 139,-311 139,-311 139,-299 139,-299 139,-293 145,-287 151,-287 151,-287 284,-287 284,-287 290,-287 296,-293 296,-299 296,-299 296,-311 296,-311 296,-317 290,-323 284,-323"/>
<text text-anchor="middle" x="217.5" y="-301.9" font-family="Noto Sans CJK SC" font-size="12.00">Recovery → body&#45;limit</text>
</g>
<!-- outer&#45;&gt;recover -->
<g id="edge2" class="edge">
<title>outer&#45;&gt;recover</title>
<path fill="none" stroke="#435671" d="M217.5,-345.9C217.5,-341.95 217.5,-337.66 217.5,-333.4"/>
<polygon fill="#435671" stroke="#435671" points="221,-333.09 217.5,-323.09 214,-333.09 221,-333.09"/>
</g>
<!-- gate -->
<g id="node4" class="node">
<title>gate</title>
<path fill="#e8f0ff" stroke="black" d="M302.5,-264C302.5,-264 132.5,-264 132.5,-264 126.5,-264 120.5,-258 120.5,-252 120.5,-252 120.5,-236 120.5,-236 120.5,-230 126.5,-224 132.5,-224 132.5,-224 302.5,-224 302.5,-224 308.5,-224 314.5,-230 314.5,-236 314.5,-236 314.5,-252 314.5,-252 314.5,-258 308.5,-264 302.5,-264"/>
<text text-anchor="middle" x="217.5" y="-247.4" font-family="Noto Sans CJK SC" font-size="12.00">/v1 组：RequireDemoKey</text>
<text text-anchor="middle" x="217.5" y="-234.4" font-family="Noto Sans CJK SC" font-size="12.00">失败：c.Error + Abort + return</text>
</g>
<!-- recover&#45;&gt;gate -->
<g id="edge3" class="edge">
<title>recover&#45;&gt;gate</title>
<path fill="none" stroke="#435671" d="M217.5,-286.93C217.5,-283.06 217.5,-278.84 217.5,-274.62"/>
<polygon fill="#435671" stroke="#435671" points="221,-274.31 217.5,-264.31 214,-274.31 221,-274.31"/>
</g>
<!-- route -->
<g id="node5" class="node">
<title>route</title>
<path fill="#e8f0ff" stroke="black" d="M245,-201C245,-201 12,-201 12,-201 6,-201 0,-195 0,-189 0,-189 0,-173 0,-173 0,-167 6,-161 12,-161 12,-161 245,-161 245,-161 251,-161 257,-167 257,-173 257,-173 257,-189 257,-189 257,-195 251,-201 245,-201"/>
<text text-anchor="middle" x="128.5" y="-184.4" font-family="Noto Sans CJK SC" font-size="12.00">POST /orders</text>
<text text-anchor="middle" x="128.5" y="-171.4" font-family="Noto Sans CJK SC" font-size="12.00">ShouldBindWith → 请求 context → Store</text>
</g>
<!-- gate&#45;&gt;route -->
<g id="edge4" class="edge">
<title>gate&#45;&gt;route</title>
<path fill="none" stroke="#435671" d="M189.34,-223.7C181.55,-218.36 172.99,-212.49 164.81,-206.89"/>
<polygon fill="#435671" stroke="#435671" points="166.7,-203.94 156.48,-201.18 162.75,-209.72 166.7,-203.94"/>
</g>
<!-- err -->
<g id="node7" class="node">
<title>err</title>
<path fill="#fff1d6" stroke="black" d="M378,-127C378,-127 233,-127 233,-127 227,-127 221,-121 221,-115 221,-115 221,-99 221,-99 221,-93 227,-87 233,-87 233,-87 378,-87 378,-87 384,-87 390,-93 390,-99 390,-99 390,-115 390,-115 390,-121 384,-127 378,-127"/>
<text text-anchor="middle" x="305.5" y="-110.4" font-family="Noto Sans CJK SC" font-size="12.00">失败：c.Error → 回卷</text>
<text text-anchor="middle" x="305.5" y="-97.4" font-family="Noto Sans CJK SC" font-size="12.00">未知错误 / panic 统一脱敏</text>
</g>
<!-- gate&#45;&gt;err -->
<g id="edge6" class="edge">
<title>gate&#45;&gt;err</title>
<path fill="none" stroke="#435671" d="M246.43,-223.99C254.72,-217.47 263.21,-209.62 269.5,-201 283.51,-181.79 292.85,-156.43 298.5,-137.05"/>
<polygon fill="#435671" stroke="#435671" points="301.92,-137.81 301.19,-127.24 295.17,-135.96 301.92,-137.81"/>
<text text-anchor="middle" x="301" y="-178.2" font-family="Noto Sans CJK SC" font-size="11.00">拒绝</text>
</g>
<!-- ok -->
<g id="node6" class="node">
<title>ok</title>
<path fill="#e8f0ff" stroke="black" d="M184,-125C184,-125 73,-125 73,-125 67,-125 61,-119 61,-113 61,-113 61,-101 61,-101 61,-95 67,-89 73,-89 73,-89 184,-89 184,-89 190,-89 196,-95 196,-101 196,-101 196,-113 196,-113 196,-119 190,-125 184,-125"/>
<text text-anchor="middle" x="128.5" y="-103.9" font-family="Noto Sans CJK SC" font-size="12.00">成功：写 201 JSON</text>
</g>
<!-- route&#45;&gt;ok -->
<g id="edge5" class="edge">
<title>route&#45;&gt;ok</title>
<path fill="none" stroke="#435671" d="M128.5,-160.71C128.5,-152.97 128.5,-143.92 128.5,-135.52"/>
<polygon fill="#435671" stroke="#435671" points="132,-135.38 128.5,-125.38 125,-135.38 132,-135.38"/>
</g>
<!-- route&#45;&gt;err -->
<g id="edge7" class="edge">
<title>route&#45;&gt;err</title>
<path fill="none" stroke="#435671" d="M175.47,-160.89C198.06,-151.7 225.33,-140.61 249.04,-130.97"/>
<polygon fill="#435671" stroke="#435671" points="250.68,-134.08 258.62,-127.07 248.04,-127.6 250.68,-134.08"/>
<text text-anchor="middle" x="250.5" y="-141.2" font-family="Noto Sans CJK SC" font-size="11.00">返回错误</text>
</g>
<!-- boundary -->
<g id="node8" class="node">
<title>boundary</title>
<path fill="#e2f7ec" stroke="black" d="M302.5,-53C302.5,-53 130.5,-53 130.5,-53 124.5,-53 118.5,-47 118.5,-41 118.5,-41 118.5,-12 118.5,-12 118.5,-6 124.5,0 130.5,0 130.5,0 302.5,0 302.5,0 308.5,0 314.5,-6 314.5,-12 314.5,-12 314.5,-41 314.5,-41 314.5,-47 308.5,-53 302.5,-53"/>
<text text-anchor="middle" x="216.5" y="-36.4" font-family="Noto Sans CJK SC" font-size="12.00">ErrorEnvelope 回到 Next 后</text>
<text text-anchor="middle" x="216.5" y="-23.4" font-family="Noto Sans CJK SC" font-size="12.00">有错误且未提交：写一次 JSON</text>
<text text-anchor="middle" x="216.5" y="-10.4" font-family="Noto Sans CJK SC" font-size="12.00">已经提交：保留原响应</text>
</g>
<!-- ok&#45;&gt;boundary -->
<g id="edge9" class="edge">
<title>ok&#45;&gt;boundary</title>
<path fill="none" stroke="#435671" stroke-dasharray="5,2" d="M147.59,-88.97C157.12,-80.47 168.98,-69.89 180.15,-59.93"/>
<polygon fill="#435671" stroke="#435671" points="182.61,-62.42 187.74,-53.16 177.95,-57.2 182.61,-62.42"/>
<text text-anchor="middle" x="204" y="-67.2" font-family="Noto Sans CJK SC" font-size="11.00">已提交守卫</text>
</g>
<!-- err&#45;&gt;boundary -->
<g id="edge8" class="edge">
<title>err&#45;&gt;boundary</title>
<path fill="none" stroke="#ab6500" d="M283.96,-87C274.68,-78.82 263.58,-69.02 253.08,-59.77"/>
<polygon fill="#ab6500" stroke="#ab6500" points="255.4,-57.14 245.58,-53.15 250.76,-62.39 255.4,-57.14"/>
</g>
</g>
</svg>
