<svg xmlns="http://www.w3.org/2000/svg" width="1040" height="500" viewBox="0 0 1040 500"><rect width="1040" height="500" fill="#101827"/><text x="32" y="46" font-size="28" font-family="Noto Sans CJK SC, sans-serif" fill="#f1f5f9">两条可选入口，不能混作一条链</text><text x="32" y="78" font-size="16" font-family="Noto Sans CJK SC, sans-serif" fill="#cbd5e1">手动观察走localhost转发；Service DNS与路由要从集群内验证</text><rect x="24" y="108" width="236" height="152" rx="18" fill="#1e293b" stroke="#4ade80"/><text x="38" y="153" font-size="20" font-family="Noto Sans CJK SC, sans-serif" fill="#f1f5f9">浏览器 / CLI</text><text x="38" y="204" font-size="15" font-family="Noto Sans CJK SC, sans-serif" fill="#f1f5f9">127.0.0.1:18080</text><text x="262" y="188" fill="#93c5fd" font-size="14">→</text><rect x="278" y="108" width="236" height="152" rx="18" fill="#1e293b" stroke="#4ade80"/><text x="292" y="153" font-size="20" font-family="Noto Sans CJK SC, sans-serif" fill="#f1f5f9">临时port-forward</text><text x="292" y="204" font-size="15" font-family="Noto Sans CJK SC, sans-serif" fill="#f1f5f9">建立到某一个Pod的隧道</text><text x="516" y="188" fill="#93c5fd" font-size="14">→</text><rect x="532" y="108" width="236" height="152" rx="18" fill="#1e293b" stroke="#4ade80"/><text x="546" y="153" font-size="20" font-family="Noto Sans CJK SC, sans-serif" fill="#f1f5f9">指定API Pod</text><text x="546" y="204" font-size="15" font-family="Noto Sans CJK SC, sans-serif" fill="#f1f5f9">/orders → Inventory</text><text x="770" y="188" fill="#93c5fd" font-size="14">→</text><rect x="786" y="108" width="236" height="152" rx="18" fill="#1e293b" stroke="#4ade80"/><text x="800" y="153" font-size="20" font-family="Noto Sans CJK SC, sans-serif" fill="#f1f5f9">同一Redis / Lua</text><text x="800" y="204" font-size="15" font-family="Noto Sans CJK SC, sans-serif" fill="#f1f5f9">库存 + 幂等记录</text><rect x="24" y="294" width="236" height="152" rx="18" fill="#1e293b" stroke="#4ade80"/><text x="38" y="339" font-size="20" font-family="Noto Sans CJK SC, sans-serif" fill="#f1f5f9">集群内caller</text><text x="38" y="390" font-size="15" font-family="Noto Sans CJK SC, sans-serif" fill="#f1f5f9">orders:8080</text><text x="262" y="374" fill="#93c5fd" font-size="14">→</text><rect x="278" y="294" width="236" height="152" rx="18" fill="#1e293b" stroke="#4ade80"/><text x="292" y="339" font-size="20" font-family="Noto Sans CJK SC, sans-serif" fill="#f1f5f9">Service / EndpointSlice</text><text x="292" y="390" font-size="15" font-family="Noto Sans CJK SC, sans-serif" fill="#f1f5f9">选择Ready后端</text><text x="516" y="374" fill="#93c5fd" font-size="14">→</text><rect x="532" y="294" width="236" height="152" rx="18" fill="#1e293b" stroke="#4ade80"/><text x="546" y="339" font-size="20" font-family="Noto Sans CJK SC, sans-serif" fill="#f1f5f9">Ready API Pod</text><text x="546" y="390" font-size="15" font-family="Noto Sans CJK SC, sans-serif" fill="#f1f5f9">/orders → Inventory</text><text x="770" y="374" fill="#93c5fd" font-size="14">→</text><rect x="786" y="294" width="236" height="152" rx="18" fill="#1e293b" stroke="#4ade80"/><text x="800" y="339" font-size="20" font-family="Noto Sans CJK SC, sans-serif" fill="#f1f5f9">同一Redis / Lua</text><text x="800" y="390" font-size="15" font-family="Noto Sans CJK SC, sans-serif" fill="#f1f5f9">一个操作原子完成</text></svg>