<?xml version="1.0" encoding="UTF-8" standalone="no"?>
<!DOCTYPE svg PUBLIC "-//W3C//DTD SVG 1.1//EN"
 "http://www.w3.org/Graphics/SVG/1.1/DTD/svg11.dtd">
<!-- Generated by graphviz version 2.42.4 (0)
 -->
<!-- Title: G Pages: 1 -->
<svg width="490pt" height="98pt"
 viewBox="0.00 0.00 490.00 98.00" xmlns="http://www.w3.org/2000/svg" xmlns:xlink="http://www.w3.org/1999/xlink">
<g id="graph0" class="graph" transform="scale(1 1) rotate(0) translate(4 94)">
<title>G</title>
<polygon fill="white" stroke="transparent" points="-4,4 -4,-94 486,-94 486,4 -4,4"/>
<!-- caller -->
<g id="node1" class="node">
<title>caller</title>
<polygon fill="none" stroke="black" points="137,-90 0,-90 0,-54 137,-54 137,-90"/>
<text text-anchor="middle" x="68.5" y="-68.2" font-family="Noto Sans CJK SC" font-size="16.00">完整调用方 main</text>
</g>
<!-- exercise -->
<g id="node2" class="node">
<title>exercise</title>
<polygon fill="none" stroke="black" points="337,-63 173,-63 173,-27 337,-27 337,-63"/>
<text text-anchor="middle" x="255" y="-41.2" font-family="Noto Sans CJK SC" font-size="16.00">练习函数 TotalCents</text>
</g>
<!-- caller&#45;&gt;exercise -->
<g id="edge1" class="edge">
<title>caller&#45;&gt;exercise</title>
<path fill="none" stroke="black" d="M137.15,-62.1C145.51,-60.88 154.15,-59.61 162.78,-58.35"/>
<polygon fill="black" stroke="black" points="163.5,-61.78 172.89,-56.87 162.49,-54.85 163.5,-61.78"/>
</g>
<!-- result -->
<g id="node4" class="node">
<title>result</title>
<polygon fill="none" stroke="black" points="482,-63 373,-63 373,-27 482,-27 482,-63"/>
<text text-anchor="middle" x="427.5" y="-41.2" font-family="Noto Sans CJK SC" font-size="16.00">返回值 / 错误</text>
</g>
<!-- exercise&#45;&gt;result -->
<g id="edge3" class="edge">
<title>exercise&#45;&gt;result</title>
<path fill="none" stroke="black" d="M337.26,-45C345.7,-45 354.19,-45 362.41,-45"/>
<polygon fill="black" stroke="black" points="362.64,-48.5 372.64,-45 362.64,-41.5 362.64,-48.5"/>
</g>
<!-- checks -->
<g id="node3" class="node">
<title>checks</title>
<polygon fill="none" stroke="black" points="132,-36 5,-36 5,0 132,0 132,-36"/>
<text text-anchor="middle" x="68.5" y="-14.2" font-family="Noto Sans CJK SC" font-size="16.00">可见表驱动测试</text>
</g>
<!-- checks&#45;&gt;exercise -->
<g id="edge2" class="edge">
<title>checks&#45;&gt;exercise</title>
<path fill="none" stroke="black" d="M132.22,-27.18C142.12,-28.63 152.52,-30.15 162.9,-31.67"/>
<polygon fill="black" stroke="black" points="162.43,-35.14 172.83,-33.12 163.45,-28.21 162.43,-35.14"/>
</g>
</g>
</svg>
