<?xml version="1.0" encoding="UTF-8" standalone="no"?>
<!DOCTYPE svg PUBLIC "-//W3C//DTD SVG 1.1//EN"
 "http://www.w3.org/Graphics/SVG/1.1/DTD/svg11.dtd">
<!-- Generated by graphviz version 2.42.4 (0)
 -->
<!-- Title: G Pages: 1 -->
<svg width="523pt" height="424pt"
 viewBox="0.00 0.00 522.50 424.00" xmlns="http://www.w3.org/2000/svg" xmlns:xlink="http://www.w3.org/1999/xlink">
<g id="graph0" class="graph" transform="scale(1 1) rotate(0) translate(18 406)">
<title>G</title>
<polygon fill="#f7fafc" stroke="transparent" points="-18,18 -18,-406 504.5,-406 504.5,18 -18,18"/>
<text text-anchor="middle" x="243.25" y="-368" font-family="Noto Sans CJK SC" font-size="20.00">net/http：请求边界与合作式取消</text>
<!-- client -->
<g id="node1" class="node">
<title>client</title>
<path fill="#e8f0ff" stroke="black" d="M409.5,-358C409.5,-358 294.5,-358 294.5,-358 288.5,-358 282.5,-352 282.5,-346 282.5,-346 282.5,-330 282.5,-330 282.5,-324 288.5,-318 294.5,-318 294.5,-318 409.5,-318 409.5,-318 415.5,-318 421.5,-324 421.5,-330 421.5,-330 421.5,-346 421.5,-346 421.5,-352 415.5,-358 409.5,-358"/>
<text text-anchor="middle" x="352" y="-341.4" font-family="Noto Sans CJK SC" font-size="12.00">客户端 → 回环 TCP</text>
<text text-anchor="middle" x="352" y="-328.4" font-family="Noto Sans CJK SC" font-size="12.00">Server → ServeMux</text>
</g>
<!-- decode -->
<g id="node2" class="node">
<title>decode</title>
<path fill="#e8f0ff" stroke="black" d="M368.5,-280C368.5,-280 201.5,-280 201.5,-280 195.5,-280 189.5,-274 189.5,-268 189.5,-268 189.5,-252 189.5,-252 189.5,-246 195.5,-240 201.5,-240 201.5,-240 368.5,-240 368.5,-240 374.5,-240 380.5,-246 380.5,-252 380.5,-252 380.5,-268 380.5,-268 380.5,-274 374.5,-280 368.5,-280"/>
<text text-anchor="middle" x="285" y="-263.4" font-family="Noto Sans CJK SC" font-size="12.00">Content&#45;Type → 256字节上限</text>
<text text-anchor="middle" x="285" y="-250.4" font-family="Noto Sans CJK SC" font-size="12.00">Decode → EOF → 字段校验</text>
</g>
<!-- client&#45;&gt;decode -->
<g id="edge1" class="edge">
<title>client&#45;&gt;decode</title>
<path fill="none" stroke="#435671" d="M335.09,-317.82C327.08,-308.73 317.37,-297.72 308.64,-287.82"/>
<polygon fill="#435671" stroke="#435671" points="311.14,-285.36 301.9,-280.17 305.89,-289.99 311.14,-285.36"/>
</g>
<!-- cancel -->
<g id="node7" class="node">
<title>cancel</title>
<path fill="#e2f7ec" stroke="black" d="M474.5,-227C474.5,-227 363.5,-227 363.5,-227 357.5,-227 351.5,-221 351.5,-215 351.5,-215 351.5,-199 351.5,-199 351.5,-193 357.5,-187 363.5,-187 363.5,-187 474.5,-187 474.5,-187 480.5,-187 486.5,-193 486.5,-199 486.5,-199 486.5,-215 486.5,-215 486.5,-221 480.5,-227 474.5,-227"/>
<text text-anchor="middle" x="419" y="-210.4" font-family="Noto Sans CJK SC" font-size="12.00">客户端取消 / 父超时</text>
<text text-anchor="middle" x="419" y="-197.4" font-family="Noto Sans CJK SC" font-size="12.00">子 context Done</text>
</g>
<!-- client&#45;&gt;cancel -->
<g id="edge6" class="edge">
<title>client&#45;&gt;cancel</title>
<path fill="none" stroke="#435671" stroke-dasharray="5,2" d="M367.84,-317.83C376.11,-307.16 385.95,-293.37 393,-280 400.16,-266.42 406.15,-250.43 410.57,-236.97"/>
<polygon fill="#435671" stroke="#435671" points="413.97,-237.85 413.64,-227.26 407.29,-235.74 413.97,-237.85"/>
<text text-anchor="middle" x="419" y="-296.2" font-family="Noto Sans CJK SC" font-size="11.00">请求生命周期</text>
</g>
<!-- deadline -->
<g id="node3" class="node">
<title>deadline</title>
<path fill="#e8f0ff" stroke="black" d="M190,-174C190,-174 12,-174 12,-174 6,-174 0,-168 0,-162 0,-162 0,-146 0,-146 0,-140 6,-134 12,-134 12,-134 190,-134 190,-134 196,-134 202,-140 202,-146 202,-146 202,-162 202,-162 202,-168 196,-174 190,-174"/>
<text text-anchor="middle" x="101" y="-157.4" font-family="Noto Sans CJK SC" font-size="12.00">WithTimeout(Request.Context)</text>
<text text-anchor="middle" x="101" y="-144.4" font-family="Noto Sans CJK SC" font-size="12.00">先检查 Err，defer cancel</text>
</g>
<!-- decode&#45;&gt;deadline -->
<g id="edge2" class="edge">
<title>decode&#45;&gt;deadline</title>
<path fill="none" stroke="#435671" d="M251.25,-239.92C221,-222.83 176.47,-197.66 143.74,-179.16"/>
<polygon fill="#435671" stroke="#435671" points="145.27,-176 134.85,-174.13 141.83,-182.1 145.27,-176"/>
</g>
<!-- reject -->
<g id="node6" class="node">
<title>reject</title>
<path fill="#fff1d6" stroke="black" d="M356.5,-174C356.5,-174 239.5,-174 239.5,-174 233.5,-174 227.5,-168 227.5,-162 227.5,-162 227.5,-146 227.5,-146 227.5,-140 233.5,-134 239.5,-134 239.5,-134 356.5,-134 356.5,-134 362.5,-134 368.5,-140 368.5,-146 368.5,-146 368.5,-162 368.5,-162 368.5,-168 362.5,-174 356.5,-174"/>
<text text-anchor="middle" x="298" y="-157.4" font-family="Noto Sans CJK SC" font-size="12.00">400 / 413 / 415 / 422</text>
<text text-anchor="middle" x="298" y="-144.4" font-family="Noto Sans CJK SC" font-size="12.00">不调用 Store</text>
</g>
<!-- decode&#45;&gt;reject -->
<g id="edge5" class="edge">
<title>decode&#45;&gt;reject</title>
<path fill="none" stroke="#435671" d="M286.91,-239.72C288.4,-225.2 290.62,-204.83 293,-187 293.12,-186.1 293.25,-185.18 293.37,-184.26"/>
<polygon fill="#435671" stroke="#435671" points="296.85,-184.67 294.85,-174.27 289.93,-183.65 296.85,-184.67"/>
<text text-anchor="middle" x="316" y="-204.2" font-family="Noto Sans CJK SC" font-size="11.00">输入失败</text>
</g>
<!-- store -->
<g id="node4" class="node">
<title>store</title>
<path fill="#e8f0ff" stroke="black" d="M327,-107C327,-107 193,-107 193,-107 187,-107 181,-101 181,-95 181,-95 181,-79 181,-79 181,-73 187,-67 193,-67 193,-67 327,-67 327,-67 333,-67 339,-73 339,-79 339,-79 339,-95 339,-95 339,-101 333,-107 327,-107"/>
<text text-anchor="middle" x="260" y="-90.4" font-family="Noto Sans CJK SC" font-size="12.00">Store.Create(ctx, input)</text>
<text text-anchor="middle" x="260" y="-77.4" font-family="Noto Sans CJK SC" font-size="12.00">下游必须观察 Done/Err</text>
</g>
<!-- deadline&#45;&gt;store -->
<g id="edge3" class="edge">
<title>deadline&#45;&gt;store</title>
<path fill="none" stroke="#435671" d="M147.85,-133.85C165.47,-126.64 185.7,-118.38 204.07,-110.86"/>
<polygon fill="#435671" stroke="#435671" points="205.56,-114.04 213.49,-107.01 202.91,-107.56 205.56,-114.04"/>
</g>
<!-- response -->
<g id="node5" class="node">
<title>response</title>
<path fill="#e8f0ff" stroke="black" d="M366,-40C366,-40 154,-40 154,-40 148,-40 142,-34 142,-28 142,-28 142,-12 142,-12 142,-6 148,0 154,0 154,0 366,0 366,0 372,0 378,-6 378,-12 378,-12 378,-28 378,-28 378,-34 372,-40 366,-40"/>
<text text-anchor="middle" x="260" y="-23.4" font-family="Noto Sans CJK SC" font-size="12.00">错误分类或 201</text>
<text text-anchor="middle" x="260" y="-10.4" font-family="Noto Sans CJK SC" font-size="12.00">Content&#45;Type → 状态码 → 唯一 JSON</text>
</g>
<!-- store&#45;&gt;response -->
<g id="edge4" class="edge">
<title>store&#45;&gt;response</title>
<path fill="none" stroke="#435671" d="M260,-66.85C260,-61.74 260,-56.09 260,-50.56"/>
<polygon fill="#435671" stroke="#435671" points="263.5,-50.24 260,-40.24 256.5,-50.24 263.5,-50.24"/>
</g>
<!-- cancel&#45;&gt;store -->
<g id="edge7" class="edge">
<title>cancel&#45;&gt;store</title>
<path fill="none" stroke="#435671" stroke-dasharray="5,2" d="M413.13,-186.74C407.33,-170.65 396.99,-148.14 381,-134 370.5,-124.71 357.94,-117.22 344.94,-111.2"/>
<polygon fill="#435671" stroke="#435671" points="345.99,-107.84 335.42,-107.07 343.2,-114.26 345.99,-107.84"/>
<text text-anchor="middle" x="441" y="-151.2" font-family="Noto Sans CJK SC" font-size="11.00">通知，不强杀</text>
</g>
</g>
</svg>
